<?xml version="1.0" encoding="UTF-8"?><svg id="dpdhl_icons" xmlns="http://www.w3.org/2000/svg" viewBox="0 0 48 48"><path d="m44,11h-27v14h11.0182c-.7597.569-1.434,1.2417-2.0046,2h-11.0136v-10h-6.4197c-.3589,0-.6902.1923-.8682.5038l-3.5803,6.2656c-.0864.1511-.1318.3221-.1318.4962v8.7344h4c0,2.2091,1.7908,4,4,4s4-1.7909,4-4h8c0,5.5228,4.4772,10,10,10s10-4.4772,10-10c0-3.2766-1.5831-6.1761-4.0182-8h4.0182v-14Zm-11.5908,26.7729l-4.2432-4.2427,1.4141-1.4141,2.8291,2.8286,6.0107-6.0107,1.4141,1.4141-7.4248,7.4248Z"/></svg>